<svg width="89" height="91" viewBox="0 0 89 91" fill="none" xmlns="http://www.w3.org/2000/svg">
<path d="M42.0408 82.5403C38.8909 80.0124 9.64047 51.5674 9.31352 51.2564C8.02165 49.9645 7.20825 48.6248 6.98497 47.3967C6.75371 46.1208 7.14446 45.0044 8.18114 43.9677C9.14606 43.0028 10.3263 42.4924 11.5942 42.4924C13.1413 42.4924 14.7282 43.2261 16.052 44.5578L29.3135 57.301C29.5448 57.5243 29.8478 57.636 30.1429 57.636C30.4539 57.636 30.7569 57.5163 30.9882 57.2851C31.4507 56.8226 31.4507 56.073 30.9962 55.6104L9.82389 33.7444C7.70267 31.6232 6.70586 28.3776 9.2258 25.8576C10.1907 24.8927 11.3709 24.3823 12.6389 24.3823C14.1859 24.3823 15.7729 25.116 17.0966 26.4477L38.7553 47.5642C38.9866 47.7875 39.2896 47.9071 39.5927 47.9071C39.8957 47.9071 40.2067 47.7875 40.438 47.5562C40.9005 47.0937 40.9085 46.3441 40.4459 45.8736L14.4331 19.2069C13.229 18.0027 12.5033 16.5594 12.3757 15.1558C12.2561 13.7284 12.7585 12.4046 13.8351 11.3281C14.8 10.3632 15.9802 9.85281 17.2481 9.85281C18.7952 9.85281 20.3821 10.5865 21.7059 11.9102L48.237 37.7795C48.4683 38.0028 48.7713 38.1224 49.0743 38.1224C49.3774 38.1224 49.6884 38.0028 49.9196 37.7715C50.3822 37.309 50.3901 36.5594 49.9276 36.0889L30.6612 16.2882C29.4491 15.0761 28.7234 13.6407 28.6038 12.2372C28.4842 10.8097 28.9866 9.48598 30.0631 8.40942C31.0281 7.44451 32.2083 6.93414 33.4762 6.93414C35.0233 6.93414 36.6102 7.6678 37.934 8.99954C44.9994 15.9373 63.4444 34.0793 64.0664 34.7492C66.4348 36.3839 66.9133 33.9118 67.0329 32.309C67.1685 30.4429 65.0313 23.9278 66.2753 18.0665C68.3646 10.2755 74.3854 11.5514 74.5209 11.6152C77.8224 13.1622 77.1924 15.4748 76.0201 20.124L75.9005 21.041C74.6725 27.1176 83.1095 45.124 83.7315 46.4717C87.0409 53.7125 90.8527 68.3936 78.2291 81.0172C64.3933 94.8529 47.2641 87.7636 42.0408 82.5403Z" fill="url(#paint0_radial_415_14)"/>
<path d="M59.7919 90.3074C51.3071 90.3074 44.0902 86.2484 41.2433 83.4334C38.6835 81.3441 22.5271 65.746 9.36922 52.9789C8.83493 52.4605 8.52393 52.1655 8.49203 52.1256C7.0008 50.6343 6.07576 49.0793 5.8126 47.612C5.50957 45.9453 6.02791 44.4382 7.33573 43.1224C8.5319 41.9262 9.99921 41.2962 11.5941 41.2962C13.4681 41.2962 15.3501 42.1575 16.8971 43.7125L30.1428 56.4398L8.96252 34.5737C6.52233 32.1335 5.29426 28.0905 8.38039 25.0123C9.57656 23.8161 11.0439 23.1861 12.6388 23.1861C14.5128 23.1861 16.3948 24.0474 17.9418 25.6024L39.5846 46.7029L13.5798 20.0442C12.1922 18.6566 11.3389 16.9581 11.1874 15.2675C11.0359 13.4652 11.6579 11.8145 12.9896 10.4828C14.1858 9.28661 15.6531 8.65662 17.248 8.65662C19.1141 8.65662 20.996 9.50989 22.5511 11.0649L49.0742 36.9262L29.8078 17.1255C28.4123 15.73 27.559 14.0314 27.4155 12.3408C27.264 10.5466 27.886 8.89586 29.2177 7.56412C30.4139 6.36795 31.8812 5.73796 33.4761 5.73796C35.3501 5.73796 37.2321 6.59921 38.7792 8.15423L44.5288 13.7922C54.776 23.8401 63.3406 32.2531 64.2577 33.1941C64.7042 33.553 65.2864 33.6886 65.5336 33.5689C65.6931 33.4892 65.8685 33.1224 65.8366 32.3488C65.7888 30.9932 65.5974 29.3106 65.398 27.5322C64.9993 23.9597 64.5846 20.2595 65.1029 17.8193C66.2353 13.5849 68.4602 11.7906 70.1189 11.0171C72.3996 9.96444 74.6085 10.3313 75.0312 10.5306C79.1779 12.4764 78.3566 15.73 77.2242 20.2436L77.2003 20.3552L77.0727 21.2882C76.2433 25.3712 80.5017 36.6551 84.7601 45.8497L84.8239 45.9772C87.6708 52.1973 92.7984 68.1543 79.0822 81.8704C72.7744 88.1623 65.9482 90.3074 59.7919 90.3074ZM11.5941 43.6886C10.6531 43.6886 9.75997 44.0793 9.02632 44.813C8.26874 45.5705 8.00558 46.3042 8.16507 47.1814C8.34051 48.1463 9.05024 49.2946 10.1587 50.4111C10.1667 50.419 10.4857 50.73 11.0359 51.2564C29.7122 69.3824 40.9881 80.1559 42.7903 81.6073L42.886 81.695C47.2879 86.0969 63.6436 93.9119 77.3837 80.1719C90.0392 67.5163 85.2784 52.7396 82.6389 46.9661L82.583 46.8465C79.8398 40.9294 73.6038 26.5753 74.7122 20.8496L74.8956 19.6534C76.1237 14.7731 76.1955 13.7523 74.1141 12.7475C73.5001 12.6359 69.0982 12.1016 67.4155 18.3775C66.9929 20.3791 67.3996 24.0394 67.7585 27.2691C67.9658 29.0952 68.1572 30.8257 68.205 32.2691C68.2848 34.5418 67.2082 35.411 66.5543 35.73C65.2226 36.376 63.6356 35.8257 62.6468 34.9964L62.5431 34.9007C62.0567 34.3744 50.4857 23.0267 42.8302 15.5147L37.0726 9.86077C35.1109 7.89107 32.583 7.56412 30.8844 9.26269C30.0551 10.092 29.6803 11.0649 29.768 12.1415C29.8637 13.2659 30.4697 14.4381 31.4825 15.4509L50.7887 35.2516C51.6978 36.1766 51.6978 37.6917 50.7728 38.6168C49.8876 39.502 48.3246 39.5179 47.4155 38.6407L20.8684 12.7635C18.9067 10.8018 16.3708 10.4748 14.6802 12.1734C13.8509 13.0027 13.4761 13.9756 13.5638 15.0522C13.6675 16.1766 14.2735 17.3568 15.2783 18.3536L41.2991 45.0363C42.2162 45.9613 42.2082 47.4764 41.2831 48.4015C40.398 49.2867 38.835 49.3026 37.9259 48.4254L16.2592 27.301C14.2975 25.3233 11.7616 25.0043 10.071 26.7029C8.00559 28.7683 9.10606 31.3281 10.6691 32.8991L31.8573 54.7811C32.7664 55.7061 32.7584 57.2133 31.8334 58.1304C30.9402 59.0235 29.3932 59.0315 28.4841 58.1623L15.2225 45.419C14.1061 44.2946 12.8222 43.6886 11.5941 43.6886Z" fill="#EDA600"/>
<path d="M62.1605 33.9756C57.7825 42.9151 58.3487 55.427 64.9197 65.4669C65.6613 66.8226 66.9293 66.1607 66.2833 64.7652C58.3487 47.7875 66.6661 35.5546 66.6661 35.5546L62.1605 33.9756Z" fill="#EDA600"/>
<path d="M44.9435 0.450873C47.3518 -0.179112 49.9196 -0.12329 52.4156 0.458848C54.8957 1.05693 57.3758 2.3169 59.2179 4.37432C61.0201 6.41579 62.1286 8.89586 62.5034 11.4955C62.8543 14.0713 62.5273 16.7268 61.3072 18.9278C61.1637 16.4557 60.733 14.1829 60.0074 12.0857C59.6326 11.041 59.194 10.0442 58.6597 9.1032C58.1334 8.17018 57.5113 7.24514 56.8495 6.48756C55.5018 4.93254 53.6756 3.72042 51.6262 2.77942C49.5688 1.80654 47.3279 1.08883 44.9435 0.450873Z" fill="#B0BEC5"/>
<path d="M45.6055 8.01069C46.9372 7.1654 48.6039 6.98996 50.1749 7.26906C51.7618 7.54817 53.277 8.33765 54.4731 9.43015C55.6613 10.5386 56.5066 11.9341 57.0329 13.3855C57.2881 14.1112 57.4157 14.8767 57.5353 15.6184C57.5752 16.3839 57.5752 17.1495 57.4556 17.915C56.9053 17.3329 56.4747 16.7507 56.068 16.1845C55.5975 15.6503 55.2307 15.0841 54.8081 14.5657C53.9787 13.537 53.1733 12.604 52.3041 11.7747C51.4109 10.9692 50.4699 10.2595 49.3774 9.64546C48.2929 9.01548 47.0728 8.48916 45.6055 8.01069Z" fill="#90A4AE"/>
<path d="M0.0152416 58.5371C1.13964 60.738 2.3119 62.7795 3.67553 64.5817C5.0312 66.384 6.58622 67.9151 8.39643 68.9119C9.27363 69.3983 10.3183 69.821 11.339 70.14C12.3677 70.4669 13.4363 70.6902 14.5368 70.8417C16.7378 71.1128 19.0504 71.065 21.4985 70.6902C19.6006 72.3409 17.0647 73.2181 14.481 73.4095C11.8653 73.5849 9.20983 73.0187 6.83343 71.679C4.44108 70.3154 2.6867 68.1463 1.58622 65.8417C0.485737 63.5211 -0.104376 61.0251 0.0152416 58.5371Z" fill="#B0BEC5"/>
<path d="M7.55107 57.604C8.3246 58.9438 9.09015 60.0203 9.92747 60.9613C10.7568 61.9023 11.65 62.6758 12.6229 63.3776C13.6117 64.0554 14.6962 64.6535 15.8764 65.2516C16.4666 65.5546 17.0965 65.7939 17.7186 66.1447C18.3645 66.4238 19.0184 66.7189 19.7042 67.1415C18.9785 67.4127 18.2369 67.5722 17.4793 67.6918C16.7297 67.7237 15.9562 67.7636 15.1906 67.6599C13.6595 67.4525 12.1284 66.9183 10.7887 65.9852C9.47293 65.0363 8.38042 63.7205 7.78233 62.2293C7.17627 60.746 7.00083 59.0873 7.55107 57.604Z" fill="#90A4AE"/>
<defs>
<radialGradient id="paint0_radial_415_14" cx="0" cy="0" r="1" gradientUnits="userSpaceOnUse" gradientTransform="translate(29.6933 27.1653) rotate(-45) scale(72.5739)">
<stop offset="0.3533" stop-color="#FFCA28"/>
<stop offset="0.8723" stop-color="#FFB300"/>
</radialGradient>
</defs>
</svg>
